<?xml version="1.0" encoding="utf-8"?>
<!-- Generator: Adobe Illustrator 18.1.1, SVG Export Plug-In . SVG Version: 6.00 Build 0)  -->
<svg version="1.1" id="Layer_1" xmlns="http://www.w3.org/2000/svg" xmlns:xlink="http://www.w3.org/1999/xlink" x="0px" y="0px"
	 viewBox="0 0 1024 1024" enable-background="new 0 0 1024 1024" xml:space="preserve">
<g>
	<rect x="-7.9" y="-6.4" fill="#FEFEFE" width="1054.4" height="1037.9"/>
	<path fill="#84BEAA" d="M307,647.7c5.6-8.1,7.8-16.9,11.3-25.1c16.4-38.2,34.3-75.7,46.5-115.6c7.1-22.9,12.5-46.4,12-70.2
		c-1.2-52.4-24.7-92.6-71.3-117.9c-9.3-5.1-12.1-10.4-9.8-20.8c3.7-16.7,7.1-33.4,12.5-49.6c1.6-4.8,3.4-9.4,10.2-6.1
		c35.4,17.2,66.6,39.4,86.5,74.6c22.3,39.3,26.4,80.9,14.2,124.1c-10.7,38-27.8,73.5-43.3,109.5c-23.8,55-48.3,109.7-72.5,164.5
		c-2.9,6.5-6.1,11.9-14.6,11.7c-10-0.2-18.6-0.4-23.7-11.9c-26-59.3-52.7-118.3-79.1-177.4c-17.5-39.1-35-78.2-52.4-117.4
		c-7.5-16.8-19.5-27.8-38-30.7c-4-0.6-6.7-2.1-6.5-6.7c0.2-5.2,4-5,7.6-5c44.5,0,89,0,133.6,0c3.9,0,7.3,0.6,7.6,5.3
		c0.3,5.3-3.5,6-7.7,6.4c-29,2.6-32.8,9.1-21.1,35.4c31.7,71.6,64.8,142.5,94.2,215.1C304.1,642.4,305.4,644.6,307,647.7z"/>
	<path fill="#2F2F2F" d="M859.2,703.1c-15.7,12.5-32.4,22.2-52.2,26.1c-53.1,10.6-95.3-20.9-97.6-75c-1.5-36.1-0.5-72.2-0.6-108.4
		c-0.1-21.6-4.9-27.2-26.4-30.2c-3.1-0.4-6-0.5-6-4.4c0-3.5,2.2-4.7,5.6-5.3c20-3.6,39.9-7.5,59.8-11.3c8.6-1.7,12.3,1.9,13.5,10.4
		c3,21.5,1.2,43.2,1.7,64.7c0.6,26.1-0.1,52.3,0.2,78.4c0.3,26.5,14.2,48.1,35.7,54.2c20.9,6,40.2,0.5,57.6-11.4
		c6.4-4.4,9.7-11.3,9.4-19.2c-1.9-42.9,0.6-85.8-0.8-128.6c-0.7-20.1-5.5-25.1-25.8-27.5c-3.3-0.4-5.8-0.8-5.9-4.6
		c-0.1-3.6,2.1-4.8,5.4-5.4c20-3.6,39.9-7.5,59.8-11.1c6.6-1.2,10.7,1.9,11.4,8.6c0.9,8.3,2,16.7,2,25c0.4,47.7,0.5,95.5,0.7,143.2
		c0,3.8,0.3,7.7,0.8,11.5c2.1,16.2,9,22.8,24.9,23.8c3.6,0.2,8.2-1.9,8.5,4.6c0.4,6.6-4.5,5.7-8.5,6.5c-18.9,3.8-37.8,7.8-56.7,11.7
		c-11,2.3-13.1,0.6-14-10.6C861.3,713.8,862.1,708.6,859.2,703.1z"/>
	<path fill="#2F2F2F" d="M622.8,463.4c0,72.6,0,145.1,0,217.7c0,21.2,4.1,26.2,25.1,30.9c1.6,0.4,3.1,0.9,4.7,1
		c3.7,0.1,5.3,2.1,5,5.6c-0.3,3.9-2.4,5.4-6.4,5.4c-34.2-0.2-68.4-0.3-102.5-0.2c-3.8,0-6.3-0.6-6.8-4.8c-0.5-4.2,1.7-5.7,5.6-6.1
		c3.5-0.4,7-1.1,10.4-2.1c9.1-2.7,15.3-8.1,15.7-18.3c0.2-4.2,0.8-8.3,0.8-12.5c0-82,0-163.9,0-245.9c0-2.9,0.1-5.8-0.2-8.7
		c-2.3-23.2-3.4-24.5-26.3-29.6c-2.9-0.6-6-0.6-5.8-4.8c0.2-3.9,3.1-4.3,6.1-4.8c20.6-3.6,41.2-7.1,61.8-10.8
		c8.9-1.6,10.4,4,11,10.7c1.7,18.7,1,37.4,1.1,56.1c0,7.1,0,14.2,0,21.3C622.3,463.4,622.6,463.4,622.8,463.4z"/>
	<path fill="#2F2F2F" d="M290.9,345.2c10.3,3,17.7,8.2,23.8,14.7c28.1,30.3,39.9,66,33.6,107.1c-0.5,3.2-0.3,8.1-3.9,8.9
		c-2.9,0.7-4.9-3.5-7.1-5.8c-29.5-31-43.1-68.5-45.6-110.7C291.5,355.1,291.3,350.7,290.9,345.2z"/>
	<path fill="#2F2F2F" d="M524.6,421.4c-0.5,11.1-5.7,23-13.1,34.2c-6.8,10.3-16.2,18.2-24,27.7c-2.3,2.8-4.8,3-7.5,0.8
		c-3.3-2.6-2.5-5.2,0-8.2c7.4-9.1,13.1-19.1,15.7-30.5c1.3-5.7,0.8-9.5-7-10.1c-17.1-1.3-26.4-13.1-24.2-29.2
		c2.1-15,17.1-25.8,32.4-23.4C514.4,385.6,524.9,399.4,524.6,421.4z"/>
</g>
</svg>
